<svg id="Layer_1" enable-background="new 0 0 512 512" height="512" viewBox="0 0 512 512" width="512" xmlns="http://www.w3.org/2000/svg"><g><path d="m96.806 430.219c-4.543-.492-9.105-1.011-13.625-1.55-19.621-164.596-3.71-314.968-.022-345.664 27.904-3.361 154.703-16.852 301.013-4.509 4.115.34 7.756-2.715 8.104-6.843.348-4.127-2.716-7.756-6.843-8.104-7.194-.607-14.341-1.152-21.433-1.639v-14.173c8.729-3.097 14.997-11.443 14.997-21.225 0-12.413-10.092-22.512-22.497-22.512s-22.497 10.099-22.497 22.512c0 9.783 6.268 18.128 14.997 21.225v13.223c-29.812-1.733-58.5-2.476-85.35-2.552v-14.671c8.729-3.097 14.997-11.443 14.997-21.225 0-12.413-10.091-22.512-22.497-22.512s-22.497 10.099-22.497 22.512c0 9.783 6.268 18.128 14.997 21.225v14.697c-31.933.201-60.918 1.308-85.65 2.73v-13.427c8.729-3.097 14.997-11.443 14.997-21.225 0-12.413-10.092-22.512-22.497-22.512s-22.497 10.099-22.497 22.512c0 9.783 6.268 18.128 14.997 21.225v14.359c-44.561 2.977-71.965 6.683-72.582 6.768-3.327.459-5.943 3.075-6.403 6.402-.094.679-3.796 28.117-6.763 72.733h-14.515c-3.097-8.729-11.443-14.997-21.225-14.997-12.413.001-22.512 10.093-22.512 22.498s10.099 22.497 22.512 22.497c9.783 0 18.128-6.269 21.225-14.997h13.587c-1.411 24.654-2.507 53.531-2.708 85.35h-14.879c-3.097-8.729-11.443-14.997-21.225-14.997-12.413 0-22.512 10.092-22.512 22.497s10.099 22.497 22.512 22.497c9.783 0 18.128-6.269 21.225-14.997h14.852c.075 26.929.818 55.718 2.554 85.65h-13.406c-3.097-8.729-11.443-14.997-21.225-14.997-12.413 0-22.512 10.092-22.512 22.497s10.099 22.497 22.512 22.497c9.783 0 18.128-6.269 21.225-14.997h14.355c1.616 23.6 3.868 47.823 6.909 72.329.424 3.41 3.109 6.096 6.52 6.52 6.475.804 13.093 1.572 19.671 2.284.275.03.547.044.816.044 3.78 0 7.031-2.85 7.447-6.693.446-4.119-2.531-7.819-6.649-8.265zm259.694-411.219c4.134 0 7.497 3.37 7.497 7.512s-3.363 7.512-7.497 7.512-7.497-3.37-7.497-7.512 3.363-7.512 7.497-7.512zm-100.35-4c4.134 0 7.497 3.37 7.497 7.512s-3.363 7.512-7.497 7.512-7.497-3.37-7.497-7.512 3.364-7.512 7.497-7.512zm-100.65 4c4.134 0 7.497 3.37 7.497 7.512s-3.363 7.512-7.497 7.512-7.497-3.37-7.497-7.512 3.363-7.512 7.497-7.512zm-128.988 143.997c-4.142 0-7.512-3.363-7.512-7.497s3.37-7.497 7.512-7.497 7.512 3.363 7.512 7.497-3.371 7.497-7.512 7.497zm-4 100.35c-4.142 0-7.512-3.363-7.512-7.497s3.37-7.497 7.512-7.497 7.512 3.363 7.512 7.497-3.371 7.497-7.512 7.497zm4 100.65c-4.142 0-7.512-3.363-7.512-7.497s3.37-7.497 7.512-7.497 7.512 3.363 7.512 7.497-3.371 7.497-7.512 7.497z"/><path d="m485.488 334.003c-9.783 0-18.128 6.269-21.225 14.997h-13.604c1.419-24.72 2.524-53.702 2.725-85.65h14.879c3.097 8.729 11.443 14.997 21.225 14.997 12.413 0 22.512-10.092 22.512-22.497s-10.099-22.497-22.512-22.497c-9.783 0-18.128 6.269-21.225 14.997h-14.852c-.074-26.839-.813-55.525-2.537-85.35h13.389c3.097 8.729 11.443 14.997 21.225 14.997 12.413 0 22.512-10.092 22.512-22.497s-10.099-22.497-22.512-22.497c-9.783 0-18.128 6.269-21.225 14.997h-14.334c-1.618-23.696-3.876-48.02-6.93-72.63-.424-3.41-3.109-6.096-6.52-6.519-3.813-.473-7.616-.927-11.411-1.363-4.119-.47-7.834 2.479-8.307 6.596-.473 4.115 2.48 7.834 6.596 8.307 1.819.208 3.64.422 5.462.639 19.621 164.596 3.71 314.968.022 345.664-27.529 3.315-151.324 16.494-295.111 4.995-4.127-.32-7.743 2.75-8.074 6.878-.33 4.129 2.75 7.744 6.879 8.074 5.182.415 10.338.797 15.465 1.149v14.474c-8.729 3.097-14.997 11.443-14.997 21.225 0 12.413 10.092 22.512 22.497 22.512s22.497-10.099 22.497-22.512c0-9.783-6.268-18.128-14.997-21.225v-13.522c29.922 1.741 58.713 2.483 85.65 2.554v14.968c-8.729 3.097-14.997 11.443-14.997 21.225 0 12.413 10.092 22.512 22.497 22.512s22.497-10.099 22.497-22.512c0-9.783-6.268-18.128-14.997-21.225v-14.997c31.813-.206 60.694-1.311 85.35-2.729v13.726c-8.729 3.097-14.997 11.443-14.997 21.225 0 12.413 10.092 22.512 22.497 22.512s22.497-10.099 22.497-22.512c0-9.783-6.268-18.128-14.997-21.225v-14.659c44.564-2.978 71.972-6.685 72.582-6.77 3.327-.459 5.943-3.075 6.403-6.402.093-.677 3.779-27.994 6.743-72.432h14.534c3.097 8.729 11.443 14.997 21.225 14.997 12.413 0 22.512-10.092 22.512-22.497s-10.098-22.498-22.511-22.498zm4-85.65c4.142 0 7.512 3.363 7.512 7.497s-3.37 7.497-7.512 7.497-7.512-3.363-7.512-7.497 3.371-7.497 7.512-7.497zm-4-100.35c4.142 0 7.512 3.363 7.512 7.497s-3.37 7.497-7.512 7.497-7.512-3.363-7.512-7.497 3.371-7.497 7.512-7.497zm-329.988 344.997c-4.134 0-7.497-3.37-7.497-7.512s3.363-7.512 7.497-7.512 7.497 3.37 7.497 7.512-3.363 7.512-7.497 7.512zm100.65 4c-4.134 0-7.497-3.37-7.497-7.512s3.363-7.512 7.497-7.512 7.497 3.37 7.497 7.512-3.363 7.512-7.497 7.512zm100.35-4c-4.134 0-7.497-3.37-7.497-7.512s3.363-7.512 7.497-7.512 7.497 3.37 7.497 7.512-3.363 7.512-7.497 7.512zm128.988-129.003c-4.142 0-7.512-3.363-7.512-7.497s3.37-7.497 7.512-7.497 7.512 3.363 7.512 7.497-3.37 7.497-7.512 7.497z"/><path d="m280.084 261.754c4.851-22.234.2-44.061 0-44.979-.608-2.786-2.743-4.986-5.509-5.677-.705-.176-17.516-4.268-39.761-.096-3.186.597-5.627 3.173-6.053 6.385-.142 1.067-2.454 18.912-2.239 42.662.106 10.552.717 22.625 2.234 34.527.482 3.787 3.71 6.553 7.43 6.553.316 0 .636-.02.958-.061 4.109-.524 7.016-4.279 6.491-8.388-1.034-8.115-1.616-16.189-1.894-23.852 17.969 1.792 31.943-1.197 32.622-1.346 2.863-.629 5.096-2.866 5.721-5.728zm-13.754-8.154c-5.259.668-14.338 1.352-24.778.119.126-12.525.913-22.866 1.482-28.83 10.016-1.267 18.322-.675 23.199-.039.837 6.119 1.804 17.205.097 28.75z"/><path d="m204.393 225.649c4.022 1.005 8.091-1.438 9.096-5.457 1.004-4.018-1.438-8.09-5.457-9.095-.705-.176-17.515-4.268-39.76-.096-3.186.597-5.627 3.173-6.053 6.385-.205 1.545-4.963 38.289-.005 77.188.411 3.229 2.858 5.823 6.058 6.423 7.459 1.398 14.305 1.868 20.14 1.868 11.565 0 19.151-1.847 19.62-1.964 4.01-1.002 6.441-5.057 5.451-9.07-.991-4.012-5.054-6.466-9.067-5.487-.13.031-11.839 2.807-27.964.76-2.728-26.396-.987-51.445.04-62.216 16.104-2.036 27.791.735 27.901.761z"/><path d="m344.166 300.032c2.998-.75 5.229-3.262 5.62-6.328 4.958-38.9.2-75.643-.005-77.188-.544-4.105-4.31-6.985-8.419-6.448-4.104.543-6.993 4.313-6.451 8.418.046.342 4.249 32.935.628 67.846-4.894.628-13.049 1.174-22.953-.095-3.604-34.875.592-67.409.637-67.749.545-4.106-2.342-7.876-6.448-8.421-4.106-.547-7.876 2.342-8.421 6.449-.205 1.545-4.963 38.288-.005 77.188.411 3.229 2.858 5.823 6.058 6.423 7.459 1.398 14.305 1.868 20.14 1.868 11.564.001 19.15-1.846 19.619-1.963z"/><path d="m388.437 154.522c-17.154 0-31.11-13.956-31.11-31.109 0-1.071.055-2.149.163-3.204.205-2.003-.403-4.005-1.689-5.555s-3.142-2.517-5.148-2.685c-38.751-3.231-79.461-4.385-121.002-3.431-4.141.095-7.42 3.529-7.325 7.67.094 4.083 3.433 7.328 7.495 7.328.058 0 .116 0 .176-.002 38.517-.885 76.303.064 112.424 2.825 1.464 23.082 19.987 41.606 43.07 43.069 2.972 38.895 3.845 79.606 2.594 121.125-.125 4.14 3.13 7.598 7.271 7.723.077.002.153.003.229.003 4.038 0 7.37-3.211 7.493-7.274 1.343-44.577.268-88.25-3.197-129.808-.167-2.006-1.133-3.86-2.682-5.146s-3.542-1.899-5.552-1.692c-1.061.109-2.141.163-3.21.163z"/><path d="m154.674 388.286c0 1.071-.055 2.149-.163 3.204-.205 2.003.403 4.005 1.689 5.555s3.142 2.517 5.148 2.685c32.897 2.743 64.341 3.771 93.01 3.771 37.996 0 71.116-1.808 96.265-3.829 2.01-.162 3.869-1.125 5.16-2.673s1.904-3.551 1.701-5.557c-.104-1.04-.158-2.102-.158-3.156 0-17.154 13.956-31.11 31.11-31.11 1.054 0 2.116.053 3.158.158 2.007.203 4.006-.412 5.555-1.703 1.548-1.291 2.511-3.15 2.672-5.159.659-8.202 1.244-16.655 1.738-25.126.241-4.135-2.916-7.683-7.051-7.924-4.155-.245-7.684 2.917-7.924 7.051-.349 5.971-.742 11.933-1.176 17.801-23.021 1.499-41.486 19.966-42.984 42.986-42.221 3.128-104.075 5.337-172.844.079-1.464-23.083-19.988-41.607-43.07-43.07-5.26-68.774-3.049-130.629.079-172.845 23.021-1.498 41.487-19.965 42.985-42.985 7.335-.542 14.817-1.021 22.329-1.431 4.136-.226 7.307-3.761 7.081-7.897-.227-4.136-3.771-7.302-7.897-7.081-10.045.547-20.041 1.219-29.711 1.996-2.01.162-3.869 1.125-5.16 2.673s-1.904 3.551-1.701 5.556c.104 1.041.158 2.103.158 3.157 0 17.154-13.956 31.109-31.11 31.109-1.053 0-2.116-.053-3.161-.158-2-.204-4.006.413-5.553 1.704s-2.51 3.149-2.671 5.158c-3.547 44.119-6.437 112.771-.058 189.275.167 2.006 1.134 3.861 2.683 5.147s3.543 1.898 5.554 1.69c1.057-.108 2.136-.163 3.206-.163 17.155.002 31.111 13.958 31.111 31.112z"/><path d="m261.899 164.85c0-4.142-3.358-7.5-7.501-7.5s-7.501 3.358-7.501 7.5 3.358 7.5 7.501 7.5 7.501-3.358 7.501-7.5z"/><path d="m210.899 164.85c0-4.142-3.358-7.5-7.501-7.5s-7.501 3.358-7.501 7.5 3.358 7.5 7.501 7.5 7.501-3.358 7.501-7.5z"/><path d="m305.398 172.35c4.143 0 7.501-3.358 7.501-7.5s-3.358-7.5-7.501-7.5-7.5 3.358-7.5 7.5 3.358 7.5 7.5 7.5z"/><path d="m246.898 344.85c0 4.142 3.358 7.5 7.501 7.5s7.501-3.358 7.501-7.5-3.358-7.5-7.501-7.5-7.501 3.358-7.501 7.5z"/><path d="m195.898 344.85c0 4.142 3.358 7.5 7.501 7.5s7.501-3.358 7.501-7.5-3.358-7.5-7.501-7.5-7.501 3.358-7.501 7.5z"/><path d="m297.898 344.85c0 4.142 3.358 7.5 7.5 7.5s7.501-3.358 7.501-7.5-3.358-7.5-7.501-7.5-7.5 3.358-7.5 7.5z"/></g></svg>