<svg id="icons" enable-background="new 0 0 64 64" height="512" viewBox="0 0 64 64" width="512" xmlns="http://www.w3.org/2000/svg"><path d="m10.999 52.002h7.001v3.998c0 .002.001.004.001.007.004 2.964 2.169 5.425 4.999 5.902v1.091c0 .553.447 1 1 1h16c.553 0 1-.447 1-1v-1.091c2.83-.478 4.995-2.938 4.999-5.902 0-.003.001-.005.001-.007v-3.998h7.001c2.757 0 5-2.243 5-5v-42.002c0-2.757-2.243-5-5-5h-42.002c-2.757 0-5 2.243-5 5v42.002c0 2.757 2.243 5 5 5zm9.002 3.998c0-.002-.001-.003-.001-.005v-3.993h1v3.998c0 .004.002.006.002.01.004 1.297.84 2.393 1.998 2.806v1.042c-1.72-.448-2.999-2-2.999-3.858zm6.002-3.998v4.997h-2.003c-.001 0-.001 0-.002 0-.551-.001-.997-.448-.997-.999 0-.002-.001-.003-.001-.005v-3.993zm2.998 0v4.997h-.998v-4.997zm3.999 0v4.997h-1.999v-4.997zm2.998 0v4.997h-.998v-4.997zm5.002 0v3.993c0 .002-.001.003-.001.005 0 .551-.446.998-.997.999-.001 0-.001 0-.002 0h-2.002v-4.997zm-16 9.998v-.995c0-.002.001-.003.001-.005s-.001-.003-.001-.005v-1.996h14v1.996c0 .002-.001.003-.001.005s.001.003.001.005v.995zm19-6.005c0 .002-.001.003-.001.005 0 1.858-1.279 3.41-2.999 3.857v-1.042c1.158-.413 1.994-1.509 1.998-2.806 0-.003.002-.005.002-.009v-3.998h1zm-36.001-50.995c0-1.654 1.346-3 3-3h42.002c1.654 0 3 1.346 3 3v42.002c0 1.654-1.346 3-3 3h-7.991c-.004 0-.006-.002-.01-.002s-.006.002-.01.002h-2.98c-.004 0-.006-.002-.01-.002s-.006.002-.01.002h-19.98c-.004 0-.006-.002-.01-.002s-.006.002-.01.002h-2.98c-.004 0-.006-.002-.01-.002s-.006.002-.01.002h-7.991c-1.654 0-3-1.346-3-3z"/><path d="m11.014 25.902c-.006 1.845.213 3.702.703 5.533.468 1.746 1.167 3.388 2.033 4.921.015.036.037.064.056.099 1.82 3.182 4.437 5.851 7.694 7.732 3.191 1.842 6.815 2.816 10.48 2.816 3.697 0 7.268-.984 10.387-2.757.024-.009.044-.024.067-.035 3.171-1.817 5.871-4.452 7.751-7.709 1.882-3.258 2.772-6.815 2.795-10.333.023-.136.022-.274-.01-.406-.046-3.533-.979-7.002-2.713-10.082-.031-.094-.082-.176-.14-.255-1.778-3.06-4.338-5.719-7.617-7.613-3.192-1.842-6.816-2.815-10.481-2.815-3.698 0-7.269.984-10.388 2.757-.021.009-.039.022-.06.032-3.174 1.817-5.876 4.453-7.758 7.713-1.851 3.203-2.784 6.757-2.802 10.36 0 .014.004.028.003.042zm2.066 1.713c.941.366 2.201.727 3.525.727 1.401 0 2.872-.404 4.101-1.633 1.904-1.904 4.389-.715 5.322-.151.029.322.09.635.169.941-2.088.189-4.741 1.206-5.556 4.244-.703 2.624-4.019 3.144-5.368 3.239-.683-1.277-1.241-2.632-1.625-4.066-.293-1.093-.47-2.196-.568-3.301zm13.178-12.973c-2.616-.701-3.131-4.016-3.231-5.366 2.257-1.212 4.757-1.973 7.361-2.198-.754 1.937-1.486 5.238.905 7.63 1.903 1.904.715 4.389.151 5.322-.322.03-.636.089-.941.168-.19-2.088-1.207-4.742-4.245-5.556zm13.807-5.836c-1.622 1.301-3.906 3.793-3.03 7.061.697 2.605-1.583 4.163-2.535 4.687-.287-.132-.586-.242-.896-.328.881-1.902 1.326-4.708-.897-6.933-1.921-1.921-.695-5.063-.11-6.276 2.581.08 5.125.69 7.468 1.789zm10.847 15.577c-1.938-.752-5.231-1.477-7.618.911-1.902 1.903-4.389.714-5.322.151-.029-.322-.089-.635-.168-.94 2.087-.189 4.74-1.208 5.556-4.245.701-2.617 4.006-3.124 5.36-3.229 1.218 2.281 1.968 4.782 2.192 7.352zm-1.721 9.676c-1.3-1.622-3.789-3.902-7.057-3.022-2.6.697-4.162-1.584-4.688-2.536.132-.286.242-.584.327-.892.879.406 1.95.72 3.069.72 1.303 0 2.669-.424 3.864-1.619 1.922-1.923 5.063-.699 6.276-.113-.073 2.525-.664 5.062-1.791 7.462zm-11.449 3.301c2.616.7 3.132 4.014 3.232 5.365-2.257 1.211-4.757 1.973-7.361 2.198.754-1.938 1.486-5.237-.905-7.629-1.903-1.904-.716-4.389-.152-5.322.322-.03.636-.089.942-.168.19 2.088 1.206 4.741 4.244 5.556zm-13.805 5.834c1.621-1.301 3.905-3.792 3.03-7.059-.697-2.605 1.582-4.163 2.533-4.688.287.132.586.242.896.328-.88 1.902-1.325 4.708.898 6.933 1.922 1.921.695 5.063.11 6.274-2.581-.078-5.124-.688-7.467-1.788zm8.063-21.193c2.206 0 4 1.794 4 4s-1.794 4-4 4-4-1.794-4-4 1.794-4 4-4zm-15.576 14.855c2.055-.315 5.274-1.329 6.149-4.596.699-2.607 3.453-2.815 4.539-2.792.185.26.387.505.609.732-1.712 1.208-3.5 3.415-2.687 6.453.7 2.615-1.911 4.718-3.031 5.481-2.232-1.381-4.116-3.174-5.579-5.278zm26.433 4.716c-.317-2.056-1.336-5.271-4.598-6.144-2.605-.699-2.814-3.455-2.792-4.54.26-.185.506-.387.732-.61 1.209 1.712 3.416 3.499 6.452 2.689 2.629-.703 4.73 1.92 5.488 3.036-1.378 2.226-3.185 4.109-5.282 5.569zm4.711-26.423c-2.056.319-5.269 1.335-6.141 4.593-.699 2.607-3.454 2.814-4.54 2.792-.185-.259-.387-.505-.609-.732 1.712-1.208 3.501-3.415 2.688-6.452-.701-2.616 1.91-4.719 3.03-5.483 2.267 1.404 4.135 3.212 5.572 5.282zm-26.424-4.72c.317 2.055 1.335 5.271 4.597 6.145 2.606.699 2.814 3.454 2.792 4.54-.259.185-.505.387-.731.609-1.208-1.714-3.414-3.503-6.453-2.688-2.621.701-4.728-1.924-5.487-3.039 1.378-2.225 3.185-4.108 5.282-5.567zm-6.337 7.51c1.299 1.62 3.787 3.9 7.059 3.028 2.609-.696 4.165 1.583 4.688 2.534-.133.287-.242.586-.328.895-1.902-.879-4.708-1.325-6.933.899-1.929 1.928-5.086.687-6.289.104.077-2.569.689-5.097 1.803-7.46z"/></svg>