<svg height="480pt" viewBox="-63 0 479 480" width="480pt" xmlns="http://www.w3.org/2000/svg"><path d="m328.5 480h-304c-13.25-.015625-23.984375-10.75-24-24v-432c.015625-13.25 10.75-23.984375 24-24h304c13.25.015625 23.984375 10.75 24 24v432c-.015625 13.25-10.75 23.984375-24 24zm-304-464c-4.417969.003906-7.996094 3.582031-8 8v432c.003906 4.417969 3.582031 7.996094 8 8h304c4.417969-.003906 7.996094-3.582031 8-8v-432c-.003906-4.417969-3.582031-7.996094-8-8zm0 0"/><path d="m176.5 280c-22.089844 0-40-17.910156-40-40s17.910156-40 40-40 40 17.910156 40 40c-.027344 22.082031-17.917969 39.972656-40 40zm0-64c-13.253906 0-24 10.746094-24 24s10.746094 24 24 24 24-10.746094 24-24c-.015625-13.25-10.75-23.984375-24-24zm0 0"/><path d="m64.5 80c-8.835938 0-16-7.164062-16-16s7.164062-16 16-16 16 7.164062 16 16c-.011719 8.832031-7.167969 15.988281-16 16zm0-16.007812"/><path d="m288.5 80c-8.835938 0-16-7.164062-16-16s7.164062-16 16-16 16 7.164062 16 16c-.011719 8.832031-7.167969 15.988281-16 16zm0-16.007812"/><path d="m64.5 432c-8.835938 0-16-7.164062-16-16s7.164062-16 16-16 16 7.164062 16 16c-.011719 8.832031-7.167969 15.988281-16 16zm0-16.007812"/><path d="m288.5 432c-8.835938 0-16-7.164062-16-16s7.164062-16 16-16 16 7.164062 16 16c-.011719 8.832031-7.167969 15.988281-16 16zm0-16.007812"/><path d="m287.96875 317.527344c15.992188-22.6875 24.5625-49.769532 24.53125-77.527344 0-75.109375-60.890625-136-136-136s-136 60.890625-136 136 60.890625 136 136 136c27.757812.03125 54.84375-8.535156 77.535156-24.523438l12.976563 12.972657c9.378906 9.324219 24.535156 9.300781 33.886719-.050781 9.351562-9.351563 9.375-24.507813.050781-33.890626zm-111.46875 42.472656c-66.273438 0-120-53.726562-120-120s53.726562-120 120-120 120 53.726562 120 120c.042969 23.519531-6.914062 46.519531-19.988281 66.070312l-26.472657-26.472656c-9.371093-9.382812-24.574218-9.386718-33.949218-.007812-9.378906 9.375-9.375 24.578125.007812 33.949218l26.472656 26.472657c-19.550781 13.078125-42.550781 20.035156-66.070312 19.988281zm113.136719-6.863281c-3.125 3.121093-8.1875 3.121093-11.3125 0l-50.914063-50.910157c-3.121094-3.125-3.121094-8.191406 0-11.316406 3.125-3.121094 8.191406-3.121094 11.316406 0l50.910157 50.914063c3.121093 3.125 3.121093 8.1875 0 11.3125zm0 0"/></svg>