<?xml version="1.0" encoding="iso-8859-1"?>
<!-- Generator: Adobe Illustrator 19.0.0, SVG Export Plug-In . SVG Version: 6.00 Build 0)  -->
<svg version="1.1" id="Capa_1" xmlns="http://www.w3.org/2000/svg" xmlns:xlink="http://www.w3.org/1999/xlink" x="0px" y="0px"
	 viewBox="0 0 512 512" style="enable-background:new 0 0 512 512;" xml:space="preserve">
<g>
	<g>
		<g>
			<path d="M179.2,213.333h153.6c9.426,0,17.067-7.641,17.067-17.067v-34.133c0-9.426-7.641-17.067-17.067-17.067H179.2
				c-9.426,0-17.067,7.641-17.067,17.067v34.133C162.133,205.692,169.774,213.333,179.2,213.333z M179.2,162.133h153.6v34.133H179.2
				V162.133z"/>
			<path d="M179.2,307.2h153.6c9.426,0,17.067-7.641,17.067-17.067V256c0-9.426-7.641-17.067-17.067-17.067H179.2
				c-9.426,0-17.067,7.641-17.067,17.067v34.133C162.133,299.559,169.774,307.2,179.2,307.2z M179.2,256h153.6v34.133H179.2V256z"/>
			<path d="M392.218,109.372c-0.047-0.579-0.159-1.152-0.333-1.707v-0.051L351.352,9.481C348.485,3.658,342.55-0.022,336.06,0
				H175.94c-6.673,0.035-12.722,3.931-15.514,9.993l-40.286,97.613v0.051c-0.174,0.555-0.285,1.127-0.333,1.707
				c-0.166,0.511-0.28,1.037-0.341,1.57V486.4c0,14.138,11.461,25.6,25.6,25.6h221.867c14.138,0,25.6-11.462,25.6-25.6V110.993
				v-0.06C392.48,110.404,392.374,109.881,392.218,109.372z M175.94,17.067l159.863-0.555l35.439,85.888H140.749L175.94,17.067z
				 M375.467,341.333h-25.6c-4.713,0-8.533,3.82-8.533,8.533s3.821,8.533,8.533,8.533h25.6v128c0,4.713-3.82,8.533-8.533,8.533
				H145.067c-4.713,0-8.533-3.82-8.533-8.533v-128h179.2c4.713,0,8.533-3.82,8.533-8.533s-3.82-8.533-8.533-8.533h-179.2V119.467
				h238.933V341.333z"/>
			<path d="M256,435.2c4.713,0,8.533-3.82,8.533-8.533v-34.133c0-4.713-3.82-8.533-8.533-8.533s-8.533,3.821-8.533,8.533v34.133
				C247.467,431.38,251.287,435.2,256,435.2z"/>
			<path d="M281.293,402.219c-4.07,2.362-5.459,7.573-3.106,11.648c6.194,10.76,3.774,24.413-5.74,32.389
				c-9.514,7.976-23.38,7.976-32.894,0c-9.514-7.976-11.934-21.629-5.74-32.389c1.682-2.645,1.778-5.999,0.25-8.737
				c-1.528-2.737-4.433-4.416-7.567-4.374c-3.134,0.042-5.993,1.8-7.446,4.577c-10.354,17.932-6.339,40.709,9.523,54.019
				s38.99,13.31,54.852,0s19.877-36.088,9.523-54.019C290.59,401.255,285.372,399.861,281.293,402.219z"/>
			<path d="M204.8,68.267h-8.533c-4.713,0-8.533,3.82-8.533,8.533s3.82,8.533,8.533,8.533h8.533c4.713,0,8.533-3.82,8.533-8.533
				S209.513,68.267,204.8,68.267z"/>
			<path d="M315.733,68.267H307.2c-4.713,0-8.533,3.82-8.533,8.533s3.82,8.533,8.533,8.533h8.533c4.713,0,8.533-3.82,8.533-8.533
				S320.446,68.267,315.733,68.267z"/>
			<path d="M264.533,68.267h-17.067c-4.713,0-8.533,3.82-8.533,8.533s3.82,8.533,8.533,8.533h17.067c4.713,0,8.533-3.82,8.533-8.533
				S269.246,68.267,264.533,68.267z"/>
			<path d="M213.333,34.133H204.8c-4.713,0-8.533,3.82-8.533,8.533s3.82,8.533,8.533,8.533h8.533c4.713,0,8.533-3.82,8.533-8.533
				S218.046,34.133,213.333,34.133z"/>
			<path d="M307.2,51.2c4.713,0,8.533-3.82,8.533-8.533s-3.82-8.533-8.533-8.533h-8.533c-4.713,0-8.533,3.82-8.533,8.533
				s3.82,8.533,8.533,8.533H307.2z"/>
			<path d="M264.533,34.133h-17.067c-4.713,0-8.533,3.82-8.533,8.533s3.82,8.533,8.533,8.533h17.067c4.713,0,8.533-3.82,8.533-8.533
				S269.246,34.133,264.533,34.133z"/>
		</g>
	</g>
</g>
<g>
</g>
<g>
</g>
<g>
</g>
<g>
</g>
<g>
</g>
<g>
</g>
<g>
</g>
<g>
</g>
<g>
</g>
<g>
</g>
<g>
</g>
<g>
</g>
<g>
</g>
<g>
</g>
<g>
</g>
</svg>
