<?xml version="1.0"?>
<svg xmlns="http://www.w3.org/2000/svg" viewBox="0 0 64 64" width="512" height="512"><g id="Outline"><g><path d="M53,47a1,1,0,0,1,1,1,1,1,0,0,0,2,0,3,3,0,1,0-3,3,1,1,0,0,0,0-2,1,1,0,0,1,0-2Z"/><path d="M53,13a3,3,0,1,0,3,3A3,3,0,0,0,53,13Zm0,4a1,1,0,1,1,1-1A1,1,0,0,1,53,17Z"/><path d="M9,51a3,3,0,1,0-3-3A3,3,0,0,0,9,51Zm0-4a1,1,0,1,1-1,1A1,1,0,0,1,9,47Z"/><path d="M9,19a3,3,0,1,0-3-3A3,3,0,0,0,9,19Zm0-4a1,1,0,1,1-1,1A1,1,0,0,1,9,15Z"/><path d="M22,37a2,2,0,0,1-2-2,1,1,0,0,0-2,0,4,4,0,1,0,4-4,2,2,0,1,1,2-2,1,1,0,0,0,2,0,4,4,0,1,0-4,4,2,2,0,0,1,0,4Z"/><path d="M32,37a2,2,0,0,1-2-2,1,1,0,0,0-2,0,4,4,0,1,0,4-4,2,2,0,1,1,2-2,1,1,0,0,0,2,0,4,4,0,1,0-4,4,2,2,0,0,1,0,4Z"/><path d="M42,39a4,4,0,0,0,4-4V29a4,4,0,0,0-4-4H39a1,1,0,0,0-1,1V38a1,1,0,0,0,1,1ZM40,27h2a2,2,0,0,1,2,2v6a2,2,0,0,1-2,2H40Z"/><path d="M61,25a1,1,0,0,0,1-1V14a5.006,5.006,0,0,0-5-5H42a1,1,0,0,0,0,2H57a3,3,0,0,1,3,3v9H57a1,1,0,0,0-1,1V40a1,1,0,0,0,1,1h3v9a3,3,0,0,1-3,3H23a1,1,0,0,0,0,2H57a5.006,5.006,0,0,0,5-5V40a1,1,0,0,0-1-1H58V37h3a1,1,0,0,0,0-2H58V33h3a1,1,0,0,0,0-2H58V29h3a1,1,0,0,0,0-2H58V25Z"/><path d="M19,53H7a3,3,0,0,1-3-3V14a3,3,0,0,1,3-3H38a1,1,0,0,0,0-2H7a5.006,5.006,0,0,0-5,5V50a5.006,5.006,0,0,0,5,5H19a1,1,0,0,0,0-2Z"/><path d="M48,16a1,1,0,0,0-1-1H15a1,1,0,0,0-1,1,4.968,4.968,0,0,1-5.834,4.924A1,1,0,0,0,7,21.91V30a1,1,0,0,0,2,0V23a7.011,7.011,0,0,0,6.929-6H46.071A7.016,7.016,0,0,0,52,22.929V41.071A7.016,7.016,0,0,0,46.071,47H15.929A7.011,7.011,0,0,0,9,41V34a1,1,0,0,0-2,0v8.09a1,1,0,0,0,1.166.986A4.968,4.968,0,0,1,14,48a1,1,0,0,0,1,1H47a1,1,0,0,0,1-1,5.006,5.006,0,0,1,5-5,1,1,0,0,0,1-1V22a1,1,0,0,0-1-1A5.006,5.006,0,0,1,48,16Z"/></g></g></svg>
